<svg xmlns="http://www.w3.org/2000/svg" width="22.211" height="26" viewBox="0 0 22.211 26">
  <g id="_x31_9_Private_Storage" transform="translate(-4 -1.936)">
    <g id="Group_6120" data-name="Group 6120" transform="translate(4 1.936)">
      <g id="Path_4116" data-name="Path 4116" transform="translate(-4 -1.936)" fill="#46cc00">
        <path d="M 15.10565853118896 27.16394424438477 L 15.06490516662598 27.15409278869629 C 14.97698497772217 27.13134765625 12.37359046936035 26.44454765319824 9.81818962097168 24.5862922668457 C 8.336709976196289 23.50898170471191 7.159709930419922 22.25102233886719 6.319890022277832 20.84737205505371 C 5.278190135955811 19.10629081726074 4.75 17.12274169921875 4.75 14.95181179046631 L 4.75 6.499834060668945 L 15.10567951202393 2.733609199523926 L 25.46133995056152 6.499833583831787 L 25.46133995056152 14.95181179046631 C 25.46133995056152 17.12259101867676 24.93321990966797 19.10602188110352 23.89166069030762 20.84701156616211 C 23.05194091796875 22.25063133239746 21.87505912780762 23.5085620880127 20.39373016357422 24.58587074279785 C 17.83256530761719 26.44849586486816 15.22348213195801 27.13419532775879 15.14533710479736 27.15435028076172 L 15.10565853118896 27.16394424438477 Z" stroke="none"/>
        <path d="M 15.10567951202393 3.53167724609375 L 5.5 7.025136947631836 L 5.5 14.95181179046631 C 5.5 18.63204193115234 7.089849472045898 21.66114044189453 10.22537040710449 23.95498275756836 C 12.35426139831543 25.51240348815918 14.53485012054443 26.21891593933105 15.10546970367432 26.38662338256836 C 15.68134880065918 26.21734428405762 17.85990905761719 25.51058387756348 19.98686981201172 23.95432281494141 C 23.12179946899414 21.66055297851562 24.71133995056152 18.63167190551758 24.71133995056152 14.95181179046631 L 24.71133995056152 7.025135040283203 L 15.10567951202393 3.53167724609375 M 15.10567951202393 1.935552597045898 L 26.21133995056152 5.974540710449219 L 26.21133995056152 14.95181179046631 C 26.21133995056152 25.09583282470703 15.43467998504639 27.85513114929199 15.32618999481201 27.88222122192383 L 15.10567951202393 27.93555068969727 L 14.88512992858887 27.88224220275879 C 14.7766695022583 27.85513114929199 4 25.09583282470703 4 14.95181179046631 L 4 5.974540710449219 L 15.10567951202393 1.935552597045898 Z" stroke="none" fill="#379f00"/>
      </g>
      <g id="Group_6119" data-name="Group 6119" transform="translate(4.154 8.075)">
        <g id="Group_6118" data-name="Group 6118">
          <path id="Path_4118" data-name="Path 4118" d="M14.172,21.783,9.293,16.9l1.466-1.466,3.413,3.413,7.559-7.559L23.2,12.759Z" transform="translate(-9.293 -11.293)" fill="#fff"/>
        </g>
      </g>
    </g>
  </g>
</svg>
