<svg xmlns="http://www.w3.org/2000/svg" width="21.8" height="20.925" viewBox="0 0 21.8 20.925">
  <g id="Group_6123" data-name="Group 6123" transform="translate(-199.6 -84.6)">
    <path id="Path_4121" data-name="Path 4121" d="M15.957,7.306a.217.217,0,0,0-.277,0L6.158,17.573c-.05.044,2.592-.066,2.592,0v8.745a.111.111,0,0,0,.111.111l5.19-.213a.111.111,0,0,0,.111-.111l-1-6.745a.111.111,0,0,1,.111-.111h5.092a.111.111,0,0,1,.111.111l-1,6.745a.111.111,0,0,0,.111.111h5.977a.111.111,0,0,0,.111-.111l-.111-8.532c0-.066,2.938.039,2.888,0Z" transform="translate(194.486 78.559)" fill="#46cc00"/>
    <g id="Home" transform="translate(200 85)">
      <g id="_016-buildings" data-name="016-buildings" transform="translate(0 0)">
        <path id="Shape" d="M12.687,0a.437.437,0,0,0-.437.437V6.125H8.75V.437A.437.437,0,0,0,8.313,0H3.063a.437.437,0,0,0-.437.437v8.75a.437.437,0,1,0,.875,0V.875H7.875V6.563A.437.437,0,0,0,8.313,7h4.375a.437.437,0,0,0,.437-.437V.875H17.5V8.75a.438.438,0,0,0,.875,0V.437A.438.438,0,0,0,17.937,0Zm7.566,9.316L10.5,19.069.747,9.316a.437.437,0,0,0-.618.619L10.191,20a.437.437,0,0,0,.619,0L20.872,9.934a.437.437,0,1,0-.618-.619ZM16.625,15.75v2.625H14a.437.437,0,1,0,0,.875h3.063a.437.437,0,0,0,.437-.437V15.75a.437.437,0,1,0-.875,0Z" transform="translate(21 20.125) rotate(180)" fill="#fff" stroke="#fff" stroke-width="0.8"/>
      </g>
    </g>
  </g>
</svg>
