<svg xmlns="http://www.w3.org/2000/svg" xmlns:xlink="http://www.w3.org/1999/xlink" width="94.173" height="86.657" viewBox="0 0 94.173 86.657">
  <defs>
    <linearGradient id="linear-gradient" x1="0.076" y1="0.283" x2="0.895" y2="0.771" gradientUnits="objectBoundingBox">
      <stop offset="0" stop-color="#d3ffc1"/>
      <stop offset="1" stop-color="#6fda44"/>
    </linearGradient>
    <filter id="Path_4070" x="21.343" y="16.857" width="60.8" height="60.8" filterUnits="userSpaceOnUse">
      <feOffset input="SourceAlpha"/>
      <feGaussianBlur stdDeviation="1" result="blur"/>
      <feFlood flood-opacity="0.2"/>
      <feComposite operator="in" in2="blur"/>
      <feComposite in="SourceGraphic"/>
    </filter>
    <linearGradient id="linear-gradient-2" x1="0.076" y1="0.283" x2="0.895" y2="0.771" gradientUnits="objectBoundingBox">
      <stop offset="0" stop-color="#d3ffc1"/>
      <stop offset="1" stop-color="#4fcd1d"/>
    </linearGradient>
    <linearGradient id="linear-gradient-3" x1="0.963" y1="0.963" x2="0" y2="0" xlink:href="#linear-gradient"/>
  </defs>
  <g id="Group_5918" data-name="Group 5918" transform="translate(-137.257 -109.967)">
    <g id="Path_4070-2" data-name="Path 4070" transform="translate(150 118.225)" fill="url(#linear-gradient)">
      <path d="M 39 78.19999694824219 C 33.7081184387207 78.19999694824219 28.57443046569824 77.16352844238281 23.74152946472168 75.11939239501953 C 19.07360076904297 73.14501953125 14.88140964508057 70.31858062744141 11.28141021728516 66.71858978271484 C 7.681419849395752 63.11859130859375 4.854979991912842 58.92639923095703 2.88060998916626 54.25846862792969 C 0.8364700078964233 49.42557144165039 -0.2000000029802322 44.2918815612793 -0.2000000029802322 39 C -0.2000000029802322 33.7081184387207 0.8364700078964233 28.57443046569824 2.88060998916626 23.74152946472168 C 4.854979991912842 19.07360076904297 7.681419849395752 14.88140964508057 11.28141021728516 11.28141021728516 C 14.88140964508057 7.681419849395752 19.07360076904297 4.854979991912842 23.74152946472168 2.88060998916626 C 28.57443046569824 0.8364700078964233 33.7081184387207 -0.2000000029802322 39 -0.2000000029802322 C 44.2918815612793 -0.2000000029802322 49.42557144165039 0.8364700078964233 54.25846862792969 2.88060998916626 C 58.92639923095703 4.854979991912842 63.11859130859375 7.681419849395752 66.71858978271484 11.28141021728516 C 70.31858062744141 14.88140964508057 73.14501953125 19.07360076904297 75.11939239501953 23.74152946472168 C 77.16352844238281 28.57443046569824 78.19999694824219 33.7081184387207 78.19999694824219 39 C 78.19999694824219 44.2918815612793 77.16352844238281 49.42557144165039 75.11939239501953 54.25846862792969 C 73.14501953125 58.92639923095703 70.31858062744141 63.11859130859375 66.71858978271484 66.71858978271484 C 63.11859130859375 70.31858062744141 58.92639923095703 73.14501953125 54.25846862792969 75.11939239501953 C 49.42557144165039 77.16352844238281 44.2918815612793 78.19999694824219 39 78.19999694824219 Z" stroke="none"/>
      <path d="M 39 0 C 17.46089172363281 0 0 17.46089172363281 0 39 C 0 60.53910827636719 17.46089172363281 78 39 78 C 60.53910827636719 78 78 60.53910827636719 78 39 C 78 17.46089172363281 60.53910827636719 0 39 0 M 39 -0.4000015258789062 C 44.31879043579102 -0.4000015258789062 49.47869873046875 0.6417770385742188 54.33638000488281 2.6964111328125 C 59.02815246582031 4.680862426757812 63.2417106628418 7.521690368652344 66.86000823974609 11.13999176025391 C 70.47830963134766 14.7582893371582 73.31913757324219 18.97185134887695 75.3035888671875 23.66361999511719 C 77.35822296142578 28.52130126953125 78.40000152587891 33.68120956420898 78.40000152587891 39 C 78.40000152587891 44.31879043579102 77.35822296142578 49.47869873046875 75.3035888671875 54.33638000488281 C 73.31913757324219 59.02815246582031 70.47830963134766 63.2417106628418 66.86000823974609 66.86000823974609 C 63.2417106628418 70.47830963134766 59.02815246582031 73.31913757324219 54.33638000488281 75.3035888671875 C 49.47869873046875 77.35822296142578 44.31879043579102 78.40000152587891 39 78.40000152587891 C 33.68120956420898 78.40000152587891 28.52130126953125 77.35822296142578 23.66361999511719 75.3035888671875 C 18.97185134887695 73.31913757324219 14.7582893371582 70.47830963134766 11.13999176025391 66.86000823974609 C 7.521690368652344 63.2417106628418 4.680862426757812 59.02815246582031 2.6964111328125 54.33638000488281 C 0.6417770385742188 49.47869873046875 -0.4000015258789062 44.31879043579102 -0.4000015258789062 39 C -0.4000015258789062 33.68120956420898 0.6417770385742188 28.52130126953125 2.6964111328125 23.66361999511719 C 4.680862426757812 18.97185134887695 7.521690368652344 14.7582893371582 11.13999176025391 11.13999176025391 C 14.7582893371582 7.521690368652344 18.97185134887695 4.680862426757812 23.66361999511719 2.6964111328125 C 28.52130126953125 0.6417770385742188 33.68120956420898 -0.4000015258789062 39 -0.4000015258789062 Z" stroke="none" fill="#379f00"/>
    </g>
    <g transform="matrix(1, 0, 0, 1, 137.26, 109.97)" filter="url(#Path_4070)">
      <g id="Path_4070-3" data-name="Path 4070" transform="translate(24.74 20.26)" fill="#fff">
        <path d="M27,0A27,27,0,1,1,0,27,27,27,0,0,1,27,0Z" stroke="none"/>
        <path d="M 27 0 C 12.08831024169922 0 0 12.08831024169922 0 27 C 0 41.91168975830078 12.08831024169922 54 27 54 C 41.91168975830078 54 54 41.91168975830078 54 27 C 54 12.08831024169922 41.91168975830078 0 27 0 M 27 -0.4000015258789062 C 30.69879913330078 -0.4000015258789062 34.28717041015625 0.3245086669921875 37.66543960571289 1.753391265869141 C 40.92826080322266 3.133449554443359 43.85848999023438 5.109031677246094 46.37472915649414 7.625270843505859 C 48.89096832275391 10.14151000976562 50.86655044555664 13.07173919677734 52.24660873413086 16.33456039428711 C 53.67549133300781 19.71282958984375 54.40000152587891 23.30120086669922 54.40000152587891 27 C 54.40000152587891 30.69879913330078 53.67549133300781 34.28717041015625 52.24660873413086 37.66543960571289 C 50.86655044555664 40.92826080322266 48.89096832275391 43.85848999023438 46.37472915649414 46.37472915649414 C 43.85848999023438 48.89096832275391 40.92826080322266 50.86655044555664 37.66543960571289 52.24660873413086 C 34.28717041015625 53.67549133300781 30.69879913330078 54.40000152587891 27 54.40000152587891 C 23.30120086669922 54.40000152587891 19.71282958984375 53.67549133300781 16.33456039428711 52.24660873413086 C 13.07173919677734 50.86655044555664 10.14151000976562 48.89096832275391 7.625270843505859 46.37472915649414 C 5.109031677246094 43.85848999023438 3.133449554443359 40.92826080322266 1.753391265869141 37.66543960571289 C 0.3245086669921875 34.28717041015625 -0.4000015258789062 30.69879913330078 -0.4000015258789062 27 C -0.4000015258789062 23.30120086669922 0.3245086669921875 19.71282958984375 1.753391265869141 16.33456039428711 C 3.133449554443359 13.07173919677734 5.109031677246094 10.14151000976562 7.625270843505859 7.625270843505859 C 10.14151000976562 5.109031677246094 13.07173919677734 3.133449554443359 16.33456039428711 1.753391265869141 C 19.71282958984375 0.3245086669921875 23.30120086669922 -0.4000015258789062 27 -0.4000015258789062 Z" stroke="none" fill="rgba(55,159,0,0.7)"/>
      </g>
    </g>
    <path id="checked_2_" data-name="checked (2)" d="M27,0A27,27,0,1,0,54,27,26.922,26.922,0,0,0,27,0ZM42.586,18.532h0L22.95,38.9a1.114,1.114,0,0,1-.859.368.955.955,0,0,1-.859-.368L11.659,28.6l-.245-.245a1.186,1.186,0,0,1,0-1.718l1.718-1.718a1.186,1.186,0,0,1,1.718,0l.123.123,6.75,7.241a.593.593,0,0,0,.859,0L39.027,15.218h.123a1.186,1.186,0,0,1,1.718,0l1.718,1.718a1.046,1.046,0,0,1,0,1.6Z" transform="translate(162 130.225)" fill="#44c600"/>
    <rect id="Rectangle_534" data-name="Rectangle 534" width="8" height="8" transform="matrix(0.875, 0.485, -0.485, 0.875, 158.136, 109.967)" fill="url(#linear-gradient-2)"/>
    <rect id="Rectangle_535" data-name="Rectangle 535" width="6" height="6" transform="translate(141.5 152.275) rotate(45)" fill="url(#linear-gradient-3)"/>
    <rect id="Rectangle_536" data-name="Rectangle 536" width="5" height="5" transform="translate(228.855 183.38) rotate(59)" fill="url(#linear-gradient)"/>
    <rect id="Rectangle_537" data-name="Rectangle 537" width="3" height="3" transform="translate(230.102 126.588) rotate(76)" fill="url(#linear-gradient)"/>
  </g>
</svg>
